<svg
  width="28"
  height="27"
  viewBox="0 0 28 27"
  fill="none"
  xmlns="http://www.w3.org/2000/svg"
>
<path d="M0 3.85714C0 1.7269 1.75512 0 3.92017 0H23.521C25.6861 0 27.4412 1.7269 27.4412 3.85714V23.1429C27.4412 25.2731 25.6861 27 23.521 27H3.92017C1.75512 27 0 25.2731 0 23.1429V3.85714Z" fill="#454545"/>
<path d="M13.7206 9.98638C13.4972 9.98638 13.283 9.89908 13.1251 9.74367C12.9671 9.58826 12.8784 9.37748 12.8784 9.1577V5.84297C12.8784 5.62319 12.9671 5.41241 13.1251 5.257C13.283 5.10159 13.4972 5.01429 13.7206 5.01429C13.944 5.01429 14.1582 5.10159 14.3161 5.257C14.4741 5.41241 14.5628 5.62319 14.5628 5.84297V9.1577C14.5628 9.37748 14.4741 9.58826 14.3161 9.74367C14.1582 9.89908 13.944 9.98638 13.7206 9.98638ZM13.7206 21.9857C13.4972 21.9857 13.283 21.8984 13.1251 21.743C12.9671 21.5876 12.8784 21.3768 12.8784 21.157V17.8423C12.8784 17.6225 12.9671 17.4117 13.1251 17.2563C13.283 17.1009 13.4972 17.0136 13.7206 17.0136C13.944 17.0136 14.1582 17.1009 14.3161 17.2563C14.4741 17.4117 14.5628 17.6225 14.5628 17.8423V21.157C14.5628 21.3768 14.4741 21.5876 14.3161 21.743C14.1582 21.8984 13.944 21.9857 13.7206 21.9857ZM9.30734 14.3287H5.93844C5.71507 14.3287 5.50085 14.2414 5.3429 14.086C5.18496 13.9306 5.09622 13.7198 5.09622 13.5C5.09622 13.2802 5.18496 13.0694 5.3429 12.914C5.50085 12.7586 5.71507 12.6713 5.93844 12.6713H9.30734C9.53071 12.6713 9.74494 12.7586 9.90288 12.914C10.0608 13.0694 10.1496 13.2802 10.1496 13.5C10.1496 13.7198 10.0608 13.9306 9.90288 14.086C9.74494 14.2414 9.53071 14.3287 9.30734 14.3287ZM21.5027 14.3287H18.1338C17.9105 14.3287 17.6963 14.2414 17.5383 14.086C17.3804 13.9306 17.2916 13.7198 17.2916 13.5C17.2916 13.2802 17.3804 13.0694 17.5383 12.914C17.6963 12.7586 17.9105 12.6713 18.1338 12.6713H21.5027C21.7261 12.6713 21.9403 12.7586 22.0983 12.914C22.2562 13.0694 22.345 13.2802 22.345 13.5C22.345 13.7198 22.2562 13.9306 22.0983 14.086C21.9403 14.2414 21.7261 14.3287 21.5027 14.3287ZM16.8412 11.2582C16.6747 11.2579 16.5121 11.2091 16.3738 11.1179C16.2356 11.0268 16.1279 10.8973 16.0643 10.7459C16.0007 10.5946 15.9842 10.4281 16.0168 10.2674C16.0493 10.1068 16.1295 9.95931 16.2473 9.84352L18.6277 7.50033C18.705 7.41966 18.798 7.35506 18.9011 7.31038C19.0043 7.26569 19.1155 7.24183 19.2281 7.2402C19.3408 7.23856 19.4527 7.2592 19.5571 7.30087C19.6615 7.34255 19.7564 7.40442 19.8361 7.48282C19.9158 7.56122 19.9787 7.65456 20.021 7.75731C20.0634 7.86006 20.0843 7.97013 20.0827 8.08099C20.081 8.19186 20.0568 8.30127 20.0114 8.40275C19.9659 8.50422 19.9003 8.5957 19.8183 8.67176L17.4362 11.0156C17.3581 11.0926 17.2653 11.1536 17.1633 11.1953C17.0612 11.2369 16.9517 11.2583 16.8412 11.2582ZM8.21784 19.743C8.0513 19.7429 7.88853 19.6942 7.7501 19.6031C7.61167 19.512 7.5038 19.3825 7.44012 19.2311C7.37645 19.0797 7.35983 18.9131 7.39236 18.7524C7.42489 18.5917 7.50511 18.4441 7.62289 18.3282L10.0044 15.986C10.0826 15.9091 10.1754 15.848 10.2776 15.8064C10.3798 15.7647 10.4894 15.7433 10.6 15.7433C10.7106 15.7433 10.8201 15.7647 10.9223 15.8064C11.0245 15.848 11.1174 15.9091 11.1956 15.986C11.2738 16.063 11.3359 16.1544 11.3782 16.2549C11.4205 16.3555 11.4423 16.4633 11.4423 16.5721C11.4423 16.6809 11.4205 16.7887 11.3782 16.8893C11.3359 16.9898 11.2738 17.0812 11.1956 17.1581L8.81346 19.4997C8.73536 19.5768 8.64254 19.638 8.54032 19.6798C8.43811 19.7215 8.32851 19.743 8.21784 19.743ZM10.6 11.2582C10.4894 11.2584 10.3798 11.237 10.2776 11.1954C10.1754 11.1538 10.0825 11.0927 10.0044 11.0156L7.62289 8.67176C7.5409 8.5957 7.47525 8.50422 7.42983 8.40275C7.38442 8.30127 7.36016 8.19186 7.3585 8.08099C7.35684 7.97013 7.37781 7.86006 7.42017 7.75731C7.46253 7.65456 7.52541 7.56122 7.60509 7.48282C7.68478 7.40442 7.77964 7.34255 7.88407 7.30087C7.9885 7.2592 8.10036 7.23856 8.21304 7.2402C8.32572 7.24183 8.43692 7.26569 8.54005 7.31038C8.64319 7.35506 8.73616 7.41966 8.81346 7.50033L11.1956 9.84418C11.3134 9.96008 11.3937 10.1077 11.4262 10.2685C11.4587 10.4293 11.442 10.5959 11.3782 10.7474C11.3145 10.8988 11.2065 11.0282 11.068 11.1193C10.9295 11.2104 10.7666 11.2583 10.6 11.2582ZM19.2233 19.743C19.1127 19.743 19.0031 19.7215 18.9009 19.6798C18.7987 19.638 18.7058 19.5768 18.6277 19.4997L16.2473 17.1565C16.1025 16.9988 16.0248 16.7924 16.0302 16.5799C16.0357 16.3675 16.1239 16.1652 16.2767 16.015C16.4294 15.8647 16.6349 15.7779 16.8509 15.7725C17.0668 15.7671 17.2766 15.8436 17.4368 15.986L19.8183 18.3282C19.9361 18.4441 20.0164 18.5918 20.0489 18.7526C20.0814 18.9133 20.0647 19.08 20.0009 19.2314C19.9372 19.3829 19.8292 19.5123 19.6907 19.6034C19.5521 19.6944 19.3899 19.743 19.2233 19.743Z" fill="white"/>
</svg>
